<svg xmlns="http://www.w3.org/2000/svg" viewBox="0 0 32 32" fill="none">
  <defs>
    <linearGradient id="shieldGrad" x1="0%" y1="0%" x2="100%" y2="100%">
      <stop offset="0%" style="stop-color:#00D9FF;stop-opacity:1" />
      <stop offset="100%" style="stop-color:#0066FF;stop-opacity:1" />
    </linearGradient>
  </defs>
  <rect width="32" height="32" rx="6" fill="#0A0F1C"/>
  <path d="M16 4L6 8v8c0 5.55 4.27 10.74 10 12 5.73-1.26 10-6.45 10-12V8L16 4z" fill="url(#shieldGrad)" opacity="0.9"/>
  <path d="M16 6L8 9.2v6.8c0 4.44 3.42 8.59 8 9.6 4.58-1.01 8-5.16 8-9.6V9.2L16 6z" fill="#0A0F1C"/>
  <path d="M16 8L10 10.6v5.4c0 3.33 2.56 6.44 6 7.2 3.44-.76 6-3.87 6-7.2v-5.4L16 8z" fill="url(#shieldGrad)" opacity="0.3"/>
  <path d="M14.5 15l-2 2 3.5 3.5 5-5-2-2-3 3-1.5-1.5z" fill="#00D9FF"/>
</svg>